<svg xmlns="http://www.w3.org/2000/svg" width="1014.9" height="442" viewBox="0 0 1014.9 442"><path fill="#003A7B" d="M1012.8 203.7c-7-36.2-41.8-53.5-57.5-57.6-17.5-4.5-36.3-3.2-52.8 3.9-8 3.4-18.7 9.5-25.3 15.4-6.9-6.6-22.4-15.7-39.9-15.7-15.4.7-78.3 8-94.5 16.6-8.9-15.6-22.8-33.1-39.6-34.4-7.9-.6-15.6 2.6-20.3 9-6.6 9-6.1 21.2-4 34.5-24-24.1-78-25.6-112.3-25.9-32.6-.2-75.2 8.2-87.3 14.8 6.1-3.7 29.7-17.4 44.3-37.4 14.8 2.3 31.7-5.6 40.2-17.8 9.2-13.4 9.7-31.3 2.3-45.6-6.1-11.8-17.2-20.7-29.9-24.3-13.7-3.9-28.9-1.1-40 7.9-1.6-15.2-12.5-28.1-26.5-33.7-15-6-32.8-3.8-45.6 6.2-6.9 5.4-12.2 12.9-14.6 21.3-2.7 9.9-1.3 20.7 3.7 29.5 0 0-.1.1-.1.2-12.7 11.5-24.1 28.5-23 46.4-30.4-30.2-66.1-54.1-99.4-71.3C257 28.3 192.5 1.6 126.1.1 106.5-.4 63 1.4 43.2 7.4 1 20-3.1 50.7 1.4 64c5.1 14.9 22.6 20.8 45 16.9 8.3-1.5 16.9-8.4 18.9-19.2 32.6-1.9 70.2.8 106.2 10.5-8.3 22.2-13.6 51.1-16.6 84.1-18.2 3.9-40.1 10.2-56.9 18.4-15 7.3-31.5 17.9-37.3 34.5-6.3 17.7 4.1 35.1 15.1 48.4 11.6 14.1 39.9 40.5 78.5 59 1.6 9.5 5.9 29.4 26.2 35.9 14 4.5 31.8 1.3 42-13.4 12.8 2.9 36.5 4.5 50.9 4.6v20.1c0 24.9 20.2 45.3 45.1 45.3h508.8c6.4 13.3 19.4 29.2 34.3 32.1 26.8 5.3 29.9-19.6 31.4-27.4 1.5-8.2 2.7-16.4 5.3-24.4l19.6-65.6c17.1-2.6 36.5-10.7 50.3-20.8 13.6-9.9 25.3-22.4 33.9-36.8 11.1-18.7 15.9-40.9 10.7-62.5"/><path fill="#FFF" d="M457.3 87.4c-21.5 3.6-35 16.1-31.7 26.1 8.1-9.6 20-19.3 31.7-26.1m-16.2 39c4 1.2 8.8 2 14.4 2 13.6 0 45.2-12.6 45.2-28 0-2.6-1.5-9.2-9.8-9.2-12.8 0-38.9 23-49.8 35.2m.2-52.3c-6.8-2.7-12.6-7.8-15.2-14.6-2.9-7.5-1.5-15.9 3.4-22.2 9-11.6 26.8-13.7 38.9-5.9 6.5 4.2 11.1 11.2 11.4 19 .3 6.3-2.2 12.4-6.5 16.9 11.1.6 18.7 6.3 24 11.3h.4c.2-3.7 1.1-7.5 2.9-10.7 4.2-7.2 11.5-12 19.7-12.9 8.2-1 17.8 1.9 25.9 10.2 4.6 4.7 7.3 11.3 7.7 18 .5 7.8-2.5 15.7-8.4 20.9-6.1 5.4-14.6 7.3-22.5 5.9-3.4-.3-6.6-1.4-9.5-3-9 20.1-40 40.4-60.8 40-35.5-.6-44.3-21.1-44.3-32.8.2-11.7 12.5-30.2 32.9-40.1m-118.6 319c-9 0-21.7-4.6-25-14.5-2.7-8.1 1.2-16.6 11.7-25.3 23.5-19.7 37.3-23.1 46.7-23.8 11.4-.9 16 6.3 16.9 10.3.8 3.7-1.6 7.3-5.2 8.1-3.4.7-6.8-1.3-7.9-4.5-.3-.2-1.1-.4-2.7-.3-7.4.6-18.5 3.5-39.1 20.7-6.8 5.6-7.8 9.3-7.4 10.5.8 2.3 6.3 4.9 10.9 5.2 9.9.5 48.9-1.7 56.9-4.4 3.6-1.2 7.4.7 8.6 4.2 1.2 3.6-.7 7.4-4.3 8.6-10 3.3-46.5 5.2-60.1 5.2m123.2-30.6 1.3 29c.2 3.8-2.7 6.9-6.5 7.1h-.3c-3.6 0-6.6-2.8-6.8-6.5l-1.2-25.9c-5.9 1.7-12.9 3.7-19.8 5.8v16.7c0 3.7-3 6.8-6.8 6.8s-6.8-3.1-6.8-6.8v-12.6c-.7.2-1.3.4-1.9.6-.7.2-1.3.3-1.9.3-2.9 0-5.6-1.9-6.5-4.8-1.1-3.6.9-7.4 4.5-8.5 1.2-.4 3.3-1 5.9-1.8v-25c0-3.8 3-6.8 6.8-6.8s6.8 3 6.8 6.8v21c6.4-1.9 13.3-3.9 19.2-5.6l-1-21.4c-.2-3.7 2.7-6.9 6.5-7.1 3.7-.1 6.9 2.7 7.1 6.5l.8 18.5c.4-.1.8-.2 1.1-.2 3.7-.6 7.5 2 7.8 5.7.2 4.3-2.2 7.3-8.3 8.2m97.2 39.6c-3.9.4-6.6-1.6-7.5-4.5-.2-.5-.7-2.1-.8-29.6-.1-30 .5-32 5.4-34 5.4-2.3 8.8 2 13.9 8.6 3.3 4.1 7.4 9.7 11.8 15.6 4 5.4 9.2 12.3 13.3 17.5.2-11.3 1.8-44.9 2.2-48.1.5-3.7 3.8-6.3 7.6-5.9 3.7.5 6.4 3.9 5.9 7.6-.3 2.3-1.9 29.2-2 40.6-.1 11.7-.2 21.3-5.7 24.6-2.6 1.6-5.7 1.7-8.6.2-3.2-1.6-7.2-6.4-23.6-28.4-2-2.7-4.3-5.8-6.5-8.7-.1 14.3.2 33.7.4 37.1.2 3.1-1.9 7-5.8 7.4m119.4-8.3c-6.6 3-13.3-3-24.6-13.8l-1-1c-2.9-2.8-7.5-7.6-12.3-12.7-1.7-1.8-3.8-4-5.8-6.1.4 8.7 1.2 20.2 2 30.9.3 3.7-2.5 7-6.3 7.3h-.5c-3.5 0-6.5-2.7-6.8-6.3 0 0-.9-11.7-1.6-23.4-1.4-24.3-1.7-28.7 4.5-30.6 5.1-1.5 6.9.4 24.3 18.9 4.5 4.7 9.1 9.6 11.8 12.2l1 1c1.5 1.4 3.6 3.4 5.8 5.4-1.1-12-3.1-31-4.3-42.1-.4-3.7 2.3-7.1 6-7.5 3.7-.4 7.1 2.3 7.5 6.1.2 1.8 4.8 44.5 5.1 52.7.4 6-3.3 8.3-4.8 9m70.9-4.9c-6.8 4.6-21.5 3.2-36.1 4.6-7 .7-12.4-.6-14.6-3.2-1.9-2.3-3.6-11.4-4.8-21.2-.1-.5-.2-1.1-.2-1.7v-.3c-1.4-12.3-2.2-24.9-2.2-25.1 0-3.2 1.5-5.3 2.7-6.5 3.4-3.3 8.2-3.4 16.4-3.2 8.3.2 27.7-1 30.2-1.2 3.2-.6 6.4 1.3 7.5 4.4 1.2 3.6-.6 7.4-4.2 8.7-2.6.9-28.4 1.8-33.8 1.8-1 0-3-.1-4.9 0 .3 3.5.4 5.1 1 10.7 11.1-.4 25-1.4 31.3-2.5 3-.5 6.5 2.5 6.6 6.3.1 2.9-1.9 5.9-5.6 6.6-9.4 1.8-20.7 2.4-30.6 2.8.3 2.6 1.1 9.1 1.4 10.7 6.1.6 17.5-.8 33.5-3.9 3.7-.7 6.8-.8 8.7 2.4 1.6 3.1.8 7.7-2.3 9.8m20.1-61.5c3.7 0 6.8 2.9 6.8 6.7 0 1.8.8 42.4.9 49.4.2 0 .5-.1.7-.1 8.3-1.4 28.8-4.5 49.1-2.4 3.7.4 6.5 3.7 6.1 7.5-.4 3.7-3.7 6.5-7.5 6.1-18.8-1.9-37.8 1-45.4 2.3-8.6 1.5-16.6-2.2-16.6-12.5 0-2.5-.6-33.7-.9-49.9 0-3.9 3.1-7.1 6.8-7.1m-285.9 72.5c-4.2-.5-6.7-4.6-5.8-8.3.8-3.6 1.7-6.9 2.4-10.1-2.6-.2-4.9-1.7-5.9-4.3-1.4-3.5.3-7.4 3.9-8.8.3-.1 2.5-1 5.9-2.3 11.1-42.1 15.1-42.3 19.7-42.4 3.6-.1 7.1-.2 22.8 28.2 2.9.2 5.4 2.2 6.2 5.1.5 1.8.2 3.6-.7 5.1 3.6 6.9 7.8 15.1 12.6 24.7 1.7 3.4.3 7.5-3.1 9.1-3.4 1.7-7.4.3-9.1-3-4.1-8.3-8.7-17-13-25.1-7.5 2.4-16.6 5.8-23.8 8.5-1.6 6.1-3.2 12.4-4.6 18.3-.8 3.3-3.9 5.8-7.5 5.3m16.3-39.6c4.3-1.6 8.8-3.2 12.9-4.5-2.9-5.1-5.4-9.6-7.5-13-1.6 4.5-3.4 10.6-5.4 17.5"/><linearGradient id="a" x1="685.5056" x2="685.5056" y1="152.8965" y2="298.9873" gradientUnits="userSpaceOnUse"><stop offset=".3114" stop-color="#fff"/><stop offset=".5086" stop-color="#91ffeb"/><stop offset=".7163" stop-color="#19fed6"/></linearGradient><path fill="url(#a)" d="M640.8 299c-10.7 0-14.8-8-14.9-28.6-.1-16 7.1-73.9 19.9-86.8 1.5-1.5 3-2.3 4.4-2.3h.3c9.8.7 30.2 31 43.8 51 12.5 18.5 15.7 22.8 18.3 22.8.2 0 .4 0 .6-.1 3.1-.9 4.6-5.1 4.6-13.3 0-10.3-5.6-28.8-10.9-46.7-4.4-14.7-8.6-28.6-8.6-34.8 0-7.3 2.2-7.3 3.2-7.3 14.6 0 43.3 50.6 43.5 93.7 0 18.7-11.5 45.8-29.6 45.9-10.7 0-28.5-27.9-40.3-46.3-10.1-15.9-13.7-21-16.5-21-4.6 0-5.1 8.1-5.7 26.4-.5 18.8-1.4 47.4-12.1 47.4z"/><path fill="#FFF" d="M701.6 151.1v3.5c5.2 0 15.5 9.3 25.6 29.7 10 20.1 16 43.4 16.1 62.3 0 9.4-3 20.5-7.8 29.1-7.3 13-15.7 15-20.1 15-2.2 0-7.5-1.9-17.7-14.8-7.3-9.2-14.6-20.6-21.1-30.7-11.5-18-14.3-21.8-18-21.8-6.5 0-6.8 9.4-7.4 28.1-.3 10.7-.7 22.7-2.5 32.1-1.2 6.2-3.5 13.7-7.9 13.7h-.1c-7.9 0-13.1-4.6-13.1-26.9-.1-16.9 7.4-73.5 19.4-85.5 1.2-1.2 2.2-1.7 3.2-1.7h.2c1.6.1 6.7 2 18.6 16.8 8 10.1 16.4 22.5 23.9 33.4 13.5 20 16.2 23.6 19.7 23.6.4 0 .7-.1 1.1-.1 5.2-1.4 5.9-8.8 5.9-15 0-10.6-5.6-29.2-11-47.2-4.2-13.9-8.5-28.4-8.5-34.3 0-2.3.2-3.9.6-4.9.3-.7.4-.7.8-.7l.1-3.7m0 0c-.1 0-.1 0 0 0-4.2 0-5 4.4-5 9.1.1 14 19.5 62.8 19.5 81.6 0 3.9-.3 10.8-3.3 11.7h-.1c-5.3 0-45.2-72.6-62-73.9h-.4c-17.1 0-26.2 72.8-26.1 90.8 0 18.2 3.2 30.4 16.6 30.4h.1c20.1 0 9.7-73.9 17.8-73.9 5.9 0 38.6 67.4 56.8 67.4h.1c19.7 0 31.3-28.9 31.3-47.6-.3-43-28.8-95.6-45.3-95.6z"/><linearGradient id="b" x1="548.6479" x2="548.6479" y1="170.6729" y2="300.7715" gradientUnits="userSpaceOnUse"><stop offset=".1122" stop-color="#fff"/><stop offset=".2688" stop-color="#b0fff1"/><stop offset=".5544" stop-color="#19fed6"/></linearGradient><path fill="url(#b)" d="M555.4 300.8c-27.3 0-43.6-7.7-52.4-14.1-7.3-5.3-14.7-14-14.7-21.3-.1-24.2 27.5-25.6 33-25.7 7.1 0 21.3 1.4 33.5 4 20.7 4.4 22.3 9.1 22.3 10.4 0 1.4-1 2.7-1.8 3.5-3.2 3.2-10.9 6.5-20.7 6.6h-.1c-6.9 0-15.8-3.5-23.7-6.6-7.2-2.8-13.5-5.3-18-5.3-9.9 0-15.2 6.8-15.2 11.7 0 1.6 0 5.3 4.1 8.2 4.2 3 11.6 4.4 22.8 4.4h.4c8.6-.1 72.7-5.6 72.6-24.6 0-4.3-5.7-8.2-17.5-11.9-9.4-2.9-21.8-5.4-33.3-6.6-6-.6-12.7-.8-19.3-.9-23.3-.5-47.4-1.1-47.5-21-.1-16.4 12.4-28.1 37.1-34.9 19.2-5.3 40.6-5.9 48.9-6h5.2c12.7 0 46.6 0 46.7 11.4 0 10.4-33.1 12.5-59.7 14.2-31.2 2-50.3 3.6-50.4 12.4-.1 5.4 11.2 6.8 39.1 9 2.8.2 5.7.4 8.6.7 15.6 1.3 30.6 3 42.3 8.6 13.3 6.3 19.7 16.8 19.8 32.2 0 3.4-.8 15.3-12.1 26-10.8 10.3-27.8 15.7-49.3 15.8l-.7-.2z"/><path fill="#FFF" d="M570.9 172.4c9.5 0 21.6.2 30.9 1.9 5.2.9 14 3.2 14 7.7 0 1.9-2.2 5.5-16.8 8.3-11.4 2.2-26.6 3.2-41.3 4.1-33.2 2.1-51.9 3.8-52 14.1-.1 7 10.5 8.4 40.7 10.8 2.8.2 5.7.4 8.5.7 33.1 2.8 60.4 7.7 60.5 39 0 3.2-.8 14.5-11.5 24.7-10.5 10-27.1 15.3-48.1 15.3h-.5c-49.2 0-65.4-25.1-65.4-33.7-.1-22.6 26-23.9 31.3-23.9 6 0 20.3 1.2 33.2 3.9 17.1 3.6 20.9 7.6 21 8.7 0 .6-.5 1.5-1.3 2.3-4.1 4.1-13 6-19.5 6h-.1c-6.5 0-15.3-3.4-23-6.4-7.4-2.9-13.8-5.4-18.7-5.4-7.1 0-17 4.7-17 13.4 0 9.9 8.8 14.4 28.6 14.4h.4c6 0 24.1-1.7 40.7-5.4 22.6-5.1 33.6-12 33.6-20.9 0-5.2-6-9.6-18.7-13.6-9.5-3-22-5.5-33.6-6.7-6-.6-12.8-.8-19.4-.9-11.7-.3-23.8-.5-32.6-3.3-9.1-2.9-13.2-7.8-13.2-16 0-15.5 12-26.7 35.8-33.2 19-5.2 40.2-5.9 48.4-5.9h5.1m0-3.5h-5.2c-14.5 0-87.8 1.8-87.7 42.6.1 27.7 41.1 20.9 68.3 23.7 22.2 2.3 49.2 9.5 49.2 16.8 0 16.3-58.8 22.8-70.9 22.9h-.4c-24.6 0-25.1-7.2-25.1-10.9 0-3.6 4.1-9.9 13.5-9.9 9.3 0 28.5 11.8 41.7 11.8h.1c13.3 0 24.3-5.9 24.3-11.9 0-10.9-44-16.1-57.6-16.1-14.3.1-34.8 5.9-34.8 27.4 0 11.1 18.2 37.2 68.9 37.2h.5c50.4-.1 63.1-28.7 63.1-43.5-.1-35.9-34.1-39.9-63.7-42.5-22.2-1.8-46.1-2.9-46-7.9.2-16.4 110.2-4.3 110.1-26.6 0-12.2-28.6-13.1-48.3-13.1z"/><linearGradient id="c" x1="215.1319" x2="231.7423" y1="15.3934" y2="332.3383" gradientUnits="userSpaceOnUse"><stop offset=".3273" stop-color="#fff"/><stop offset=".3578" stop-color="#fafffe"/><stop offset=".3965" stop-color="#eafffb"/><stop offset=".4395" stop-color="#d0fff7"/><stop offset=".4858" stop-color="#acfff0"/><stop offset=".5347" stop-color="#7dfee8"/><stop offset=".5848" stop-color="#45fede"/><stop offset=".6203" stop-color="#19fed6"/></linearGradient><path fill="url(#c)" d="M193.1 334.3c-14.7 0-18.2-10.9-19.2-29.8l-1.1-1.5c-56.2-24.4-93.4-65.4-93.4-81.9 0-8.8 9.8-18.6 27.7-27.4 17.7-8.7 41.1-15.5 66-19.3l1.5-1.7c2-48.1 8.7-65.2 14.3-65.2 9.3 0 15.6 23.2 16.9 62.2l1.7 1.7c42.2 0 74.2 5.2 95 15.5 15.9 7.9 24.7 18.8 24.7 30.7 0 7.9-4.7 14.2-8.6 18.1-4.4 4.4-9.1 6.9-10.2 7.2-1.9-.1-3.8-.2-5.6-.2-5.4-.2-12.8-.4-12.8-2.6 0-2.4 2.5-4.8 5.2-7.4 3.2-3 6.5-6.2 6.5-10.3-.1-10.8-49.9-21.3-78.8-21.3h-.5c-4.3 0-9.1 0-14.3.1l-1.7 1.8c.5 27.1 1.7 69 2.4 88.9l1.4 1.7c15.7 3 31.3 4.6 46.3 4.6h.6c14.1 0 50.1-1.6 81.3-15.2 31.7-13.8 47.7-35.3 47.6-63.9-.1-38.8-36.6-83.6-97.5-120.1-60.9-36.3-135.9-58-200.8-58h-.8c-5.2 0-18.6.2-30.4 1.5-13.8 1.5-19.7 3.8-19.7 7.7 0 3.7 3 5.1 5.1 6.2 2.3 1.1 3.2 1.7 3.2 3.1 0 .4-.1.6-.3.8-1.6 1.6-7.8 1.6-9.9 1.6h-.5c-6.4 0-10.5-1-12.6-3.2-1.1-1.2-1.7-2.6-1.6-4.5 0-8.2 8.9-19.1 19.4-23.7 11.9-5 38.2-8.5 70.5-9.4 2.4-.1 4.9-.1 7.3-.1 34.3 0 70.7 6.5 108.2 19.5C260 52.2 293.9 69.1 324 89.4c60.7 40.9 98.4 90.1 98.5 128.6.1 29.1-15.4 55.9-43.6 75.5-28 19.4-66 30.2-107.1 30.3h-.5c-20.4 0-40.6-2.5-60.1-7.5l-2.2 1.5c-1.5 11.2-6.6 16.6-15.7 16.6l-.2-.1zm-21-131.8c-58.2 2.9-86.4 10.7-86.4 23.8 0 10.7 35.9 39.3 85.4 56.8l2.3-1.7c0-22.8.2-56 .5-77.2l-1.8-1.7z"/><path fill="#FFF" d="M117.6 22.7c143.2 0 303 116.4 303.2 195.2.1 28.5-15.1 54.8-42.9 74.1-27.7 19.2-65.4 29.9-106.1 30h-.5c-20.3 0-40.3-2.5-59.7-7.4l-4.3 2.9c-1.8 13.6-8.8 15.1-14 15.1h-.2c-11.9 0-16.3-7.1-17.5-28.1l-2.1-3c-25.7-11.2-49.9-26.9-68.1-44.4-16.8-16.1-24.3-29.6-24.3-35.9 0-8 9.7-17.4 26.7-25.8 17.5-8.6 40.8-15.4 65.5-19.1l3-3.3c.5-11.6 1.6-28.3 4-41.9 3.8-21.4 8.4-21.6 8.7-21.6 6 0 13.6 15.8 15.2 60.5l3.5 3.4c41.9 0 73.6 5.2 94.2 15.4 15.3 7.6 23.7 17.9 23.7 29.1 0 13.6-14.7 22.4-17.3 23.5-1.8-.1-3.6-.2-5.3-.2-3.6-.1-9.3-.3-11.1-1.2.3-1.6 2.6-3.8 4.6-5.7 3.3-3.1 7-6.7 7-11.6 0-2.1-.1-8.6-28.6-16.1-16.8-4.4-36.2-7-51.9-7h-.5c-4.3 0-9.1 0-14.3.1l-3.4 3.6c.5 27.1 1.7 69 2.4 88.9l2.8 3.3c15.8 3 31.5 4.6 46.6 4.6h.6c14.2 0 50.5-1.6 82-15.4 14.7-6.4 26.3-14.7 34.4-24.6 9.5-11.5 14.3-25.3 14.2-40.9-.1-20.4-9.4-42-27.9-64-17-20.3-41.4-40.2-70.5-57.6s-62.4-31.9-96.2-42c-36.3-10.8-71.8-16.3-105.5-16.3h-.8c-5.2 0-18.7.2-30.6 1.5-15.3 1.7-21.2 4.3-21.2 9.4 0 4.8 3.8 6.7 6.1 7.8.7.3 1.9.9 2.1 1.3-.7.3-2.6.9-8.4.9h-.4c-5.8 0-9.6-.9-11.3-2.7-.5-.5-1.2-1.4-1.1-3.3v-.1c0-7.4 8.6-17.7 18.4-22 11.7-4.9 37.8-8.4 69.8-9.3 2.4-.1 4.9-.1 7.3-.1m52.9 262 4.7-3.3c0-22.8.2-55.9.5-77.1l-3.7-3.5c-79 3.9-88.1 16.5-88.1 25.5 0 8.9 17.4 22 24.8 27.3 17.3 12 39.2 23.1 61.8 31.1M117.6 19.2c-2.5 0-4.9 0-7.4.1-31.8.9-58.6 4.3-71.1 9.6-10.7 4.7-20.5 16-20.5 25.3-.2 8.6 9.6 9.5 15.9 9.5h.5c6.3 0 12-.5 11.9-4.2 0-5.2-8.3-4.1-8.3-9.3 0-6 32.2-7.4 48.3-7.5h.8c137.9 0 296.3 95.4 296.6 176.4.2 63-81.9 77.2-127.1 77.3h-.6c-15.9 0-31.3-1.7-46-4.5-.7-20.1-1.9-62.2-2.4-88.8 5.2-.1 10.1-.1 14.3-.1h.5c33.5 0 76.9 11.8 77 19.6 0 6.7-11.7 11.3-11.7 17.7 0 4.8 10.8 3.9 20.2 4.6 1.9 0 20.5-10.5 20.5-27-.1-22.1-27.9-48-121.4-48-.9-24.8-4.6-63.9-18.7-63.9-11.7 0-15.1 43.1-16.1 66.9-50.4 7.6-95.3 28.1-95.3 48.4 0 16.5 36.1 58.2 94.5 83.5 1 18.6 4.5 31.4 21 31.4h.2c12 0 16.2-8.8 17.4-18.2 18.7 4.8 39.1 7.5 60.6 7.5h.5c84.7-.2 152.7-45.5 152.5-107.5-.2-81.8-162.4-198.8-306.6-198.8zm54.1 262.2c-50.1-17.7-84.2-45.8-84.2-55.2 0-14.5 44-20 84.7-22-.3 22.7-.5 55.3-.5 77.2z"/><linearGradient id="d" x1="453.534" x2="453.534" y1="170.1899" y2="299.1943" gradientUnits="userSpaceOnUse"><stop offset=".1434" stop-color="#fff"/><stop offset=".1874" stop-color="#f7fffe"/><stop offset=".254" stop-color="#e3fffa"/><stop offset=".3348" stop-color="#c0fff4"/><stop offset=".4269" stop-color="#91ffeb"/><stop offset=".527" stop-color="#55fee1"/><stop offset=".6168" stop-color="#19fed6"/></linearGradient><path fill="url(#d)" d="M455.5 299.2c-4.8 0-7.6-.9-9.8-3.2-5.5-5.6-7.7-20.6-7-48.7l.1-3.5c.2-11.3.6-30.3 2.6-46.1 3-23.8 8-27.4 10.7-27.4 3.9 0 7.9 1.9 10.9 15.5 2.9 13.2 4.6 36 5.5 73.7.6 23.6-.5 34.2-4 37.7-1.8 1.9-4.6 2.1-8.6 2.1l-.4-.1z"/><path fill="#FFF" d="M452 171.9c2.1 0 6.1 0 9.2 14.1 2.9 13.1 4.6 35.8 5.5 73.4.6 22.4-.5 33.4-3.5 36.5-1.3 1.3-3.3 1.5-7.4 1.5h-.2c-4.2 0-6.7-.8-8.6-2.7-5.1-5.2-7.1-20.3-6.5-47.5 0-1.1 0-2.2.1-3.5.2-11.3.6-30.2 2.6-46 3-24.9 8.2-25.8 8.8-25.8m0-3.5c-14.3.1-14.7 57.7-15.1 78.8-1 47.7 6 53.7 18.6 53.7h.3c11.4 0 15.4-1.4 14.4-41.6-1.8-76.2-7-90.9-18.2-90.9z"/><linearGradient id="e" x1="809.7964" x2="809.7964" y1="170.7979" y2="308.749" gradientUnits="userSpaceOnUse"><stop offset=".09929888" stop-color="#fff"/><stop offset=".141" stop-color="#effffc"/><stop offset=".2228" stop-color="#c5fff5"/><stop offset=".3365" stop-color="#81fee9"/><stop offset=".4766" stop-color="#24fed8"/><stop offset=".4928" stop-color="#19fed6"/></linearGradient><path fill="url(#e)" d="M781.1 308.7c-21.7 0-28.5-24.7-28.6-33.7 0-4.7 3.3-14.6 6-22.6 1.3-3.9 2.5-7.6 3.3-10.3.6-2.3-.6-4.5-1.7-6.4-.5-.9-1.2-2.2-1.2-2.7.5-5.4 6.1-7.9 10.5-9.9 3.1-1.4 5.5-2.5 6.2-4.5.7-2 4.6-14 3.9-17.8-.4-1.8-2.6-2.9-6.7-4.7-5.7-2.6-14.4-6.5-14.4-12.3 0-6.8 28.1-8.9 50.7-10.6 8.5-.6 17.2-1.3 25.4-2.2 1-.1 2.1-.2 3.1-.2 10.9 0 21.2 6.7 26.6 13.4 2.6 3.2 2.9 5 2.8 5.3-1 3.6-4.1 6.1-9.1 7.4-.9.2-7.4.6-13.6.9-18.5 1-34.2 2-38.3 3.7-1.4.6-2.5 2.2-3.5 4.9-1.4 4.1-2.5 11.6-1 14.2 1.4 2.2 7.5 3 28.4 3.6 3.2.1 5.7.2 6.7.3 3.6.3 5.8 4.7 5.7 8.7 0 1.9-.7 8.1-8.4 8.6-1.4.1-5.2.1-9.6.1-14.5.1-27.9.2-31.3 1.3-4.5 1.5-7.3 12.6-8 16-1.1 5.1-2 11.6.1 13.6.7.6 1.7.9 3.5.9 5.1 0 16.5-2 27.5-3.9 8.4-1.5 16.4-2.9 19-2.9 3.6 0 8.5 2.5 11.6 6 2 2.3 3 4.6 2.8 6.5-1 3.5-31.5 28.1-67.6 29.3h-.8z"/><path fill="#FFF" d="M837.7 169v3.5c8.9 0 16.1 4.6 19.6 7.3 5.2 4.1 7.7 8.1 8 9.4-.9 2.8-3.5 4.8-7.7 5.9-1.1.2-7.3.6-13.3.9-19.4 1.1-34.5 2-38.9 3.8-1.9.8-3.3 2.7-4.5 6-1.3 3.7-2.8 12.2-.8 15.7l.1.1c1.7 2.7 5.8 3.6 29.8 4.4 3 .1 5.6.2 6.7.3 2.2.2 4.1 3.4 4.1 6.9 0 2.4-.9 6.5-6.7 6.9-1.4.1-5.2.1-9.5.1-15.8.1-28.2.2-31.9 1.4-2.7.9-6.4 4.6-9.2 17.3-.7 3.3-2.7 12.2.6 15.2 1.3 1.1 3 1.3 4.7 1.3 5.3 0 16.7-2 27.8-3.9 8-1.4 16.3-2.8 18.7-2.8 3.1 0 7.5 2.3 10.3 5.5 1.5 1.7 2.4 3.4 2.4 4.8-2.9 4.7-32.6 27-66 28.1h-.9c-20.4 0-26.8-23.4-26.8-32 0-4.4 3.3-14.2 5.9-22 1.3-3.9 2.5-7.6 3.3-10.5.8-2.9-.7-5.6-1.8-7.7-.3-.6-.8-1.5-.9-1.9.5-4 4.4-6 9.5-8.3 3.3-1.5 6.2-2.8 7.2-5.6.4-1 4.8-14.1 4-18.7-.5-2.7-3.2-3.9-7.7-6-5-2.3-13.3-6-13.3-10.7 0 0 .3-2.7 13.2-5.1 9.5-1.7 22.4-2.7 35.9-3.7 8.5-.6 17.3-1.3 25.4-2.2.9-.1 1.9-.2 2.9-.2V169m-.2 0c-1.1 0-2.2.1-3.3.2-33.8 3.6-77.7 3.5-77.6 14.5 0 10.4 20.5 14.5 21.1 17.3.5 2.9-2.7 13.6-3.9 16.9-1.2 3.6-15.8 4.7-16.8 14.8-.2 2.4 3.6 6 2.9 8.8-2.3 8.5-9.3 26-9.3 33.3 0 11.1 8.1 35.5 30.3 35.5h1c36.3-1.2 68.8-26.4 69.3-30.9.7-6.7-9.2-14.5-16.2-14.5-6.1 0-37.4 6.8-46.5 6.8-1.2 0-2-.1-2.3-.4-2.5-2.3 2.3-25 7.3-26.6 4.9-1.6 35.5-1.1 40.6-1.4 14.3-.8 11.6-20.1 2.7-20.8-4.4-.4-32.2-.5-33.8-3-1.5-2.5.5-15.4 3.6-16.7 6.3-2.6 48.5-3.8 51.7-4.6 5.2-1.3 9.1-4.1 10.4-8.6 1.1-3.9-13.1-20.6-31.2-20.6z"/><linearGradient id="f" x1="919.4241" x2="919.4241" y1="167.2275" y2="422.0352" gradientUnits="userSpaceOnUse"><stop offset=".1431" stop-color="#fff"/><stop offset=".1838" stop-color="#e9fffb"/><stop offset=".2687" stop-color="#b0fff1"/><stop offset=".3895" stop-color="#56fee1"/><stop offset=".466" stop-color="#19fed6"/></linearGradient><path fill="url(#f)" d="M868.5 422c-4.6 0-10.6-3.6-15.6-9.3-5.5-6.3-8.7-13.9-8.8-20.9-.5-29.5 14-75.7 22.7-103.3 1-3.2 1.9-6.1 2.7-8.8l-.1-1.3c-4.3-8.5-6.8-18.5-6.8-27.3-.1-35.7 32.4-74.2 43.7-83.4.4-.3.8-.5 1.2-.5.6 0 1.3.6 1.9 1.5 1.9 3.1 2.5 9.2.2 14.2-1.1 2.3-3.5 6.6-6.3 11.5-8.7 15.5-20.6 36.7-20.6 45.9 0 2.7.8 5.7 2.4 9l3 .3c13.2-16.9 28.1-33.6 40.7-45.7 16.5-15.9 29.7-24.6 38-25.1h.4c5.8 0 27.4 7.6 27.5 45 0 16.6-9.4 36-25.3 51.9-17.9 18-40.3 28.3-61.2 28.3-1.5 0-2.9-.1-4.4-.2l-1.8 1.3c-4.1 17.1-15.7 57-23.1 79-2.4 7-3.9 15.3-5.1 22.6-1.1 6.1-2.4 13.8-3.7 14.9-.6.4-1.1.4-1.6.4zm100.3-219.4c-3 0-8.7 2.4-23.4 23.4-10.2 14.4-20.7 32.1-27.8 44.3l1.5 2.6h.7c14.7 0 32.1-8 44.4-20.3 9.8-9.8 15.1-21.4 15.1-32.6-.1-11.5-3.6-17.3-10.5-17.4z"/><path fill="#FFF" d="M907.5 169.1c1.3 1.1 3.3 7.4.6 13.2-1 2.2-3.4 6.5-6.2 11.4-11 19.5-20.9 37.8-20.8 46.8 0 3 .9 6.2 2.6 9.7l5.9.7c13.2-16.8 28-33.4 40.6-45.5 20.5-19.7 31.4-24.3 36.8-24.6h.3c2.5 0 8.9 1.7 14.8 8.3 9 9.9 10.9 24.5 10.9 34.9 0 16.1-9.2 35.1-24.8 50.7-17.6 17.7-39.5 27.8-60 27.8-1.4 0-2.9-.1-4.3-.1l-3.7 2.7c-4.1 17.1-15.7 56.9-23 78.8-2.4 7.1-3.9 15.5-5.2 22.9-.9 4.9-2 11.5-3 13.6h-.5c-4 0-9.6-3.4-14.2-8.7-5.2-6-8.3-13.2-8.4-19.8-.5-29.2 14-75.2 22.6-102.7 1-3.2 1.9-6.2 2.7-8.8l-.2-2.6c-4.2-8.3-6.6-18-6.6-26.5-.1-19 9.5-38.2 17.6-51 9.7-15.4 20.5-27 25.4-31 0-.2.1-.2.1-.2m12.3 105.6c15.1 0 33-8.2 45.6-20.8 10.1-10.1 15.6-22.1 15.6-33.9-.1-15.7-6.6-19.1-12.1-19.2h-.1c-3.9 0-9.9 2.9-24.9 24.1-10.2 14.5-20.8 32.2-27.8 44.5l3 5.2c.2.1.5.1.7.1m-12.3-109.2c-.7 0-1.5.3-2.3.9-10.6 8.7-44.4 48.1-44.3 84.8 0 8.4 2.2 18.7 7 28.1-7.6 24.6-26.1 79.3-25.5 112.6.3 16.1 15.6 31.9 26.1 31.9.7 0 1.4-.1 2-.2 3.9-.9 4.8-23.3 10-38.7 7.3-21.9 19-62 23.1-79.1 1.5.1 3 .2 4.5.2 44.4 0 88.4-45.2 88.3-82-.1-37.1-21.7-46.7-29.3-46.7h-.5c-19.7 1.2-57.8 43.1-80 71.5-1.4-2.9-2.2-5.7-2.2-8.3 0-11.9 22.5-47.8 26.7-56.7 3.9-8.1.9-18.3-3.6-18.3zm12.3 105.7h-.6c16.6-28.7 40.7-66.9 49.7-66.9h.1c6.2.1 8.6 6.3 8.6 15.7 0 28-33.5 51.2-57.8 51.2z"/></svg>